<svg width="104" height="104" viewBox="0 0 104 104" fill="none" xmlns="http://www.w3.org/2000/svg">
<path d="M93.6607 4.78959C93.2743 4.36295 92.7188 4.12146 92.1393 4.12146H11.626C11.0464 4.12146 10.4909 4.36295 10.1046 4.78959C9.71012 5.21622 9.51692 5.78775 9.57327 6.36733L16.8261 87.6132C16.8985 88.4664 17.4942 89.1748 18.3153 89.4163L51.3111 98.8345C51.4882 98.8908 51.6814 98.915 51.8746 98.915C52.0678 98.915 52.2529 98.8908 52.438 98.8345L85.458 89.4163C86.2791 89.1748 86.8667 88.4664 86.9472 87.6132L94.1919 6.36733C94.2483 5.78775 94.0551 5.21622 93.6607 4.78959ZM76.2974 32.8026H37.53L38.4557 43.2914H75.3636L72.5945 74.2909L51.8665 80.5536L51.6653 80.4892L31.1787 74.2828L30.0598 61.6528H40.0978L40.5325 66.5551L51.9873 68.9539L63.2327 66.5551L64.4321 53.2892H29.3112L26.5823 22.7807H77.1909L76.2974 32.8026Z" fill="#4CD78C"/>
</svg>
