<svg width="62" height="62" viewBox="0 0 62 62" fill="none" xmlns="http://www.w3.org/2000/svg">
<path d="M30.9999 5.5857C39.2773 5.5857 40.2577 5.6172 43.5265 5.76634C46.549 5.90429 48.1904 6.4093 49.2829 6.83372C50.7298 7.39608 51.7626 8.06796 52.8473 9.15269C53.932 10.2374 54.6039 11.2702 55.1662 12.7171C55.5907 13.8096 56.0957 15.451 56.2337 18.4733C56.3828 21.7423 56.4143 22.7227 56.4143 31.0001C56.4143 39.2775 56.3828 40.2578 56.2337 43.5267C56.0957 46.5491 55.5907 48.1906 55.1662 49.283C54.6039 50.7299 53.932 51.7627 52.8473 52.8474C51.7626 53.9322 50.7298 54.604 49.2829 55.1663C48.1904 55.5908 46.549 56.0958 43.5265 56.2338C40.2582 56.3829 39.2778 56.4144 30.9999 56.4144C22.722 56.4144 21.7417 56.3829 18.4733 56.2338C15.4509 56.0958 13.8094 55.5908 12.7171 55.1663C11.2701 54.604 10.2373 53.9322 9.15256 52.8474C8.06783 51.7627 7.39596 50.7299 6.83372 49.283C6.40918 48.1906 5.90416 46.5491 5.76622 43.5268C5.61708 40.2578 5.58558 39.2775 5.58558 31.0001C5.58558 22.7227 5.61708 21.7423 5.76622 18.4735C5.90416 15.451 6.40918 13.8096 6.83372 12.7171C7.39596 11.2702 8.06783 10.2374 9.15256 9.15269C10.2373 8.06796 11.2701 7.39608 12.7171 6.83372C13.8094 6.4093 15.4509 5.90429 18.4732 5.76634C21.7422 5.6172 22.7225 5.5857 30.9999 5.5857ZM30.9999 0C22.5808 0 21.5252 0.0356859 18.2187 0.186551C14.919 0.33717 12.6657 0.861137 10.6937 1.62752C8.65518 2.41975 6.92638 3.47974 5.203 5.20312C3.47962 6.9265 2.41962 8.6553 1.6274 10.6938C0.861014 12.6658 0.337047 14.9192 0.186428 18.2189C0.0355628 21.5252 0 22.5809 0 31.0001C0 39.4192 0.0355628 40.4749 0.186428 43.7813C0.337047 47.081 0.861014 49.3343 1.6274 51.3063C2.41962 53.3447 3.47962 55.0736 5.203 56.797C6.92638 58.5204 8.65518 59.5804 10.6937 60.3726C12.6657 61.139 14.919 61.663 18.2187 61.8136C21.5252 61.9644 22.5808 62 30.9999 62C39.4191 62 40.4748 61.9644 43.7811 61.8136C47.0808 61.663 49.3342 61.139 51.3062 60.3726C53.3447 59.5804 55.0735 58.5204 56.7969 56.797C58.5203 55.0736 59.5802 53.3448 60.3725 51.3063C61.1389 49.3343 61.6628 47.081 61.8134 43.7813C61.9643 40.4749 62 39.4192 62 31.0001C62 22.5809 61.9643 21.5252 61.8134 18.2189C61.6628 14.9192 61.1389 12.6658 60.3725 10.6938C59.5802 8.6553 58.5203 6.9265 56.7969 5.20312C55.0735 3.47974 53.3447 2.41975 51.3062 1.62752C49.3342 0.861137 47.0808 0.33717 43.7811 0.186551C40.4748 0.0356859 39.4191 0 30.9999 0ZM30.9999 15.0811C22.2082 15.0811 15.081 22.2083 15.081 31.0001C15.081 39.7918 22.2082 46.919 30.9999 46.919C39.7917 46.919 46.9189 39.7918 46.9189 31.0001C46.9189 22.2083 39.7917 15.0811 30.9999 15.0811ZM30.9999 41.3335C25.293 41.3335 20.6665 36.707 20.6665 31.0001C20.6665 25.2932 25.293 20.6667 30.9999 20.6667C36.7068 20.6667 41.3333 25.2932 41.3333 31.0001C41.3333 36.707 36.7068 41.3335 30.9999 41.3335ZM51.2678 14.4522C51.2678 16.5067 49.6024 18.1722 47.5478 18.1722C45.4933 18.1722 43.8278 16.5067 43.8278 14.4522C43.8278 12.3976 45.4933 10.7322 47.5478 10.7322C49.6024 10.7322 51.2678 12.3976 51.2678 14.4522Z" fill="#DBDBDB"/>
</svg>
