<svg width="104" height="104" viewBox="0 0 108 108" fill="none" xmlns="http://www.w3.org/2000/svg">
<path d="M89.668 8.98376H14.1053C11.0705 8.98376 8.6073 11.447 8.6073 14.4817V90.0364C8.6073 93.0712 11.0705 95.5344 14.1053 95.5344H89.66C92.6947 95.5344 95.1579 93.0712 95.1579 90.0445V14.4817C95.1579 11.447 92.6947 8.98376 89.668 8.98376ZM56.0041 75.3054C56.0041 83.5403 51.1742 87.2915 44.1227 87.2915C37.7473 87.2915 33.1509 83.0171 31.2753 79.0485L37.7553 75.1283C39.003 77.342 40.9028 79.0485 43.6397 79.0485C46.2558 79.0485 47.7611 78.0262 47.7611 74.0497V48.1376H56.0041V75.3054ZM73.8825 87.2915C66.5814 87.2915 62.4358 83.6127 60.1255 79.0485L66.3077 74.9271C67.9901 77.6801 69.8254 80.3123 73.7054 80.3123C76.9655 80.3123 78.6721 78.6863 78.6721 76.4324C78.6721 73.7438 76.9011 72.7859 73.319 71.2162L71.3549 70.3709C65.6798 67.956 61.9045 64.9293 61.9045 58.5218C61.9045 52.6294 66.4043 48.1376 73.4237 48.1376C78.4225 48.1376 82.0127 49.8764 84.6047 54.4325L78.4869 58.3688C77.1346 55.9458 75.6856 54.996 73.4237 54.996C71.1214 54.996 69.6644 56.461 69.6644 58.3688C69.6644 60.7274 71.1214 61.6772 74.4943 63.1423L76.4584 63.9875C83.1477 66.8452 86.915 69.7672 86.915 76.3358C86.915 83.4115 81.3526 87.2915 73.8825 87.2915Z" fill="#4CD78C"/>
</svg>
