<svg width="72" height="72" viewBox="0 0 72 72" fill="none" xmlns="http://www.w3.org/2000/svg">
<path d="M59.04 6H12.96C8.98561 6 5.76001 9.2256 5.76001 13.2V59.28C5.76001 63.2544 8.98561 66.48 12.96 66.48H59.04C63.0144 66.48 66.24 63.2544 66.24 59.28V13.2C66.24 9.2256 63.0144 6 59.04 6ZM24.48 29.04V56.4H15.84V29.04H24.48ZM15.84 21.0768C15.84 19.0608 17.568 17.52 20.16 17.52C22.752 17.52 24.3792 19.0608 24.48 21.0768C24.48 23.0928 22.8672 24.72 20.16 24.72C17.568 24.72 15.84 23.0928 15.84 21.0768ZM56.16 56.4H47.52C47.52 56.4 47.52 43.0656 47.52 42C47.52 39.12 46.08 36.24 42.48 36.1824H42.3648C38.88 36.1824 37.44 39.1488 37.44 42C37.44 43.3104 37.44 56.4 37.44 56.4H28.8V29.04H37.44V32.7264C37.44 32.7264 40.2192 29.04 45.8064 29.04C51.5232 29.04 56.16 32.9712 56.16 40.9344V56.4Z" fill="#DBDBDB"/>
</svg>
