<svg width="271" height="31" viewBox="0 0 271 31" fill="none" xmlns="http://www.w3.org/2000/svg">
<path d="M18.895 13.34C18.895 14.7633 18.5683 16.07 17.915 17.26C17.2617 18.4267 16.2583 19.3717 14.905 20.095C13.5517 20.8183 11.8717 21.18 9.86498 21.18H6.15498V30H0.169983V5.43H9.86498C11.825 5.43 13.4816 5.76833 14.835 6.445C16.1883 7.12166 17.2033 8.055 17.88 9.245C18.5567 10.435 18.895 11.8 18.895 13.34ZM9.40998 16.42C10.5533 16.42 11.405 16.1517 11.965 15.615C12.525 15.0783 12.805 14.32 12.805 13.34C12.805 12.36 12.525 11.6017 11.965 11.065C11.405 10.5283 10.5533 10.26 9.40998 10.26H6.15498V16.42H9.40998Z" fill="black"/>
<path d="M40.4208 19.92C40.4208 20.48 40.3858 21.0633 40.3158 21.67H26.7708C26.8641 22.8833 27.2491 23.8167 27.9258 24.47C28.6258 25.1 29.4775 25.415 30.4808 25.415C31.9741 25.415 33.0125 24.785 33.5958 23.525H39.9658C39.6391 24.8083 39.0441 25.9633 38.1808 26.99C37.3408 28.0167 36.2791 28.8217 34.9958 29.405C33.7125 29.9883 32.2775 30.28 30.6908 30.28C28.7775 30.28 27.0741 29.8717 25.5808 29.055C24.0875 28.2383 22.9208 27.0717 22.0808 25.555C21.2408 24.0383 20.8208 22.265 20.8208 20.235C20.8208 18.205 21.2291 16.4317 22.0458 14.915C22.8858 13.3983 24.0525 12.2317 25.5458 11.415C27.0391 10.5983 28.7541 10.19 30.6908 10.19C32.5808 10.19 34.2608 10.5867 35.7308 11.38C37.2008 12.1733 38.3441 13.305 39.1608 14.775C40.0008 16.245 40.4208 17.96 40.4208 19.92ZM34.2958 18.345C34.2958 17.3183 33.9458 16.5017 33.2458 15.895C32.5458 15.2883 31.6708 14.985 30.6208 14.985C29.6175 14.985 28.7658 15.2767 28.0658 15.86C27.3891 16.4433 26.9691 17.2717 26.8058 18.345H34.2958ZM34.7158 5.465L26.2808 9V4.87L34.7158 0.809998V5.465Z" fill="black"/>
<path d="M49.5632 13.725C50.2632 12.6517 51.1382 11.8117 52.1882 11.205C53.2382 10.575 54.4049 10.26 55.6882 10.26V16.595H54.0432C52.5499 16.595 51.4299 16.9217 50.6832 17.575C49.9365 18.205 49.5632 19.325 49.5632 20.935V30H43.5782V10.47H49.5632V13.725Z" fill="black"/>
<path d="M61.5589 8.44C60.5089 8.44 59.6456 8.13666 58.9689 7.53C58.3156 6.9 57.9889 6.13 57.9889 5.22C57.9889 4.28667 58.3156 3.51666 58.9689 2.91C59.6456 2.28 60.5089 1.965 61.5589 1.965C62.5856 1.965 63.4256 2.28 64.0789 2.91C64.7556 3.51666 65.0939 4.28667 65.0939 5.22C65.0939 6.13 64.7556 6.9 64.0789 7.53C63.4256 8.13666 62.5856 8.44 61.5589 8.44ZM64.5339 10.47V30H58.5489V10.47H64.5339Z" fill="black"/>
<path d="M67.6812 20.235C67.6812 18.205 68.0895 16.4317 68.9062 14.915C69.7462 13.3983 70.9012 12.2317 72.3712 11.415C73.8645 10.5983 75.5678 10.19 77.4812 10.19C79.9312 10.19 81.9728 10.8317 83.6062 12.115C85.2628 13.3983 86.3478 15.2067 86.8612 17.54H80.4912C79.9545 16.0467 78.9162 15.3 77.3762 15.3C76.2795 15.3 75.4045 15.7317 74.7512 16.595C74.0978 17.435 73.7712 18.6483 73.7712 20.235C73.7712 21.8217 74.0978 23.0467 74.7512 23.91C75.4045 24.75 76.2795 25.17 77.3762 25.17C78.9162 25.17 79.9545 24.4233 80.4912 22.93H86.8612C86.3478 25.2167 85.2628 27.0133 83.6062 28.32C81.9495 29.6267 79.9078 30.28 77.4812 30.28C75.5678 30.28 73.8645 29.8717 72.3712 29.055C70.9012 28.2383 69.7462 27.0717 68.9062 25.555C68.0895 24.0383 67.6812 22.265 67.6812 20.235Z" fill="black"/>
<path d="M96.0476 4.1V30H90.0626V4.1H96.0476Z" fill="black"/>
<path d="M118.795 19.92C118.795 20.48 118.76 21.0633 118.69 21.67H105.145C105.238 22.8833 105.623 23.8167 106.3 24.47C107 25.1 107.851 25.415 108.855 25.415C110.348 25.415 111.386 24.785 111.97 23.525H118.34C118.013 24.8083 117.418 25.9633 116.555 26.99C115.715 28.0167 114.653 28.8217 113.37 29.405C112.086 29.9883 110.651 30.28 109.065 30.28C107.151 30.28 105.448 29.8717 103.955 29.055C102.461 28.2383 101.295 27.0717 100.455 25.555C99.6148 24.0383 99.1948 22.265 99.1948 20.235C99.1948 18.205 99.6032 16.4317 100.42 14.915C101.26 13.3983 102.426 12.2317 103.92 11.415C105.413 10.5983 107.128 10.19 109.065 10.19C110.955 10.19 112.635 10.5867 114.105 11.38C115.575 12.1733 116.718 13.305 117.535 14.775C118.375 16.245 118.795 17.96 118.795 19.92ZM112.67 18.345C112.67 17.3183 112.32 16.5017 111.62 15.895C110.92 15.2883 110.045 14.985 108.995 14.985C107.991 14.985 107.14 15.2767 106.44 15.86C105.763 16.4433 105.343 17.2717 105.18 18.345H112.67Z" fill="black"/>
<path d="M129.897 30.28C128.194 30.28 126.677 29.9883 125.347 29.405C124.017 28.8217 122.967 28.0283 122.197 27.025C121.427 25.9983 120.996 24.855 120.902 23.595H126.817C126.887 24.2717 127.202 24.82 127.762 25.24C128.322 25.66 129.011 25.87 129.827 25.87C130.574 25.87 131.146 25.73 131.542 25.45C131.962 25.1467 132.172 24.7617 132.172 24.295C132.172 23.735 131.881 23.3267 131.297 23.07C130.714 22.79 129.769 22.4867 128.462 22.16C127.062 21.8333 125.896 21.495 124.962 21.145C124.029 20.7717 123.224 20.2 122.547 19.43C121.871 18.6367 121.532 17.575 121.532 16.245C121.532 15.125 121.836 14.11 122.442 13.2C123.072 12.2667 123.982 11.5317 125.172 10.995C126.386 10.4583 127.821 10.19 129.477 10.19C131.927 10.19 133.852 10.7967 135.252 12.01C136.676 13.2233 137.492 14.8333 137.702 16.84H132.172C132.079 16.1633 131.776 15.6267 131.262 15.23C130.772 14.8333 130.119 14.635 129.302 14.635C128.602 14.635 128.066 14.775 127.692 15.055C127.319 15.3117 127.132 15.6733 127.132 16.14C127.132 16.7 127.424 17.12 128.007 17.4C128.614 17.68 129.547 17.96 130.807 18.24C132.254 18.6133 133.432 18.9867 134.342 19.36C135.252 19.71 136.046 20.2933 136.722 21.11C137.422 21.9033 137.784 22.9767 137.807 24.33C137.807 25.4733 137.481 26.5 136.827 27.41C136.197 28.2967 135.276 28.9967 134.062 29.51C132.872 30.0233 131.484 30.28 129.897 30.28Z" fill="black"/>
<path d="M157.776 30.245C155.979 30.245 154.369 29.9533 152.946 29.37C151.522 28.7867 150.379 27.9233 149.516 26.78C148.676 25.6367 148.232 24.26 148.186 22.65H154.556C154.649 23.56 154.964 24.26 155.501 24.75C156.037 25.2167 156.737 25.45 157.601 25.45C158.487 25.45 159.187 25.2517 159.701 24.855C160.214 24.435 160.471 23.8633 160.471 23.14C160.471 22.5333 160.261 22.0317 159.841 21.635C159.444 21.2383 158.942 20.9117 158.336 20.655C157.752 20.3983 156.912 20.1067 155.816 19.78C154.229 19.29 152.934 18.8 151.931 18.31C150.927 17.82 150.064 17.0967 149.341 16.14C148.617 15.1833 148.256 13.935 148.256 12.395C148.256 10.1083 149.084 8.32333 150.741 7.04C152.397 5.73333 154.556 5.08 157.216 5.08C159.922 5.08 162.104 5.73333 163.761 7.04C165.417 8.32333 166.304 10.12 166.421 12.43H159.946C159.899 11.6367 159.607 11.0183 159.071 10.575C158.534 10.1083 157.846 9.875 157.006 9.875C156.282 9.875 155.699 10.0733 155.256 10.47C154.812 10.8433 154.591 11.3917 154.591 12.115C154.591 12.9083 154.964 13.5267 155.711 13.97C156.457 14.4133 157.624 14.8917 159.211 15.405C160.797 15.9417 162.081 16.455 163.061 16.945C164.064 17.435 164.927 18.1467 165.651 19.08C166.374 20.0133 166.736 21.215 166.736 22.685C166.736 24.085 166.374 25.3567 165.651 26.5C164.951 27.6433 163.924 28.5533 162.571 29.23C161.217 29.9067 159.619 30.245 157.776 30.245Z" fill="black"/>
<path d="M169.229 20.2C169.229 18.1933 169.602 16.4317 170.349 14.915C171.119 13.3983 172.157 12.2317 173.464 11.415C174.771 10.5983 176.229 10.19 177.839 10.19C179.216 10.19 180.417 10.47 181.444 11.03C182.494 11.59 183.299 12.325 183.859 13.235V10.47H189.844V30H183.859V27.235C183.276 28.145 182.459 28.88 181.409 29.44C180.382 30 179.181 30.28 177.804 30.28C176.217 30.28 174.771 29.8717 173.464 29.055C172.157 28.215 171.119 27.0367 170.349 25.52C169.602 23.98 169.229 22.2067 169.229 20.2ZM183.859 20.235C183.859 18.7417 183.439 17.5633 182.599 16.7C181.782 15.8367 180.779 15.405 179.589 15.405C178.399 15.405 177.384 15.8367 176.544 16.7C175.727 17.54 175.319 18.7067 175.319 20.2C175.319 21.6933 175.727 22.8833 176.544 23.77C177.384 24.6333 178.399 25.065 179.589 25.065C180.779 25.065 181.782 24.6333 182.599 23.77C183.439 22.9067 183.859 21.7283 183.859 20.235Z" fill="black"/>
<path d="M206.074 10.26C208.361 10.26 210.181 11.0067 211.534 12.5C212.911 13.97 213.599 16 213.599 18.59V30H207.649V19.395C207.649 18.0883 207.311 17.0733 206.634 16.35C205.957 15.6267 205.047 15.265 203.904 15.265C202.761 15.265 201.851 15.6267 201.174 16.35C200.497 17.0733 200.159 18.0883 200.159 19.395V30H194.174V10.47H200.159V13.06C200.766 12.1967 201.582 11.52 202.609 11.03C203.636 10.5167 204.791 10.26 206.074 10.26Z" fill="black"/>
<path d="M228.643 24.925V30H225.598C223.428 30 221.736 29.475 220.523 28.425C219.31 27.3517 218.703 25.6133 218.703 23.21V15.44H216.323V10.47H218.703V5.71H224.688V10.47H228.608V15.44H224.688V23.28C224.688 23.8633 224.828 24.2833 225.108 24.54C225.388 24.7967 225.855 24.925 226.508 24.925H228.643Z" fill="black"/>
<path d="M240.867 30.28C238.953 30.28 237.227 29.8717 235.687 29.055C234.17 28.2383 232.968 27.0717 232.082 25.555C231.218 24.0383 230.787 22.265 230.787 20.235C230.787 18.2283 231.23 16.4667 232.117 14.95C233.003 13.41 234.217 12.2317 235.757 11.415C237.297 10.5983 239.023 10.19 240.937 10.19C242.85 10.19 244.577 10.5983 246.117 11.415C247.657 12.2317 248.87 13.41 249.757 14.95C250.643 16.4667 251.087 18.2283 251.087 20.235C251.087 22.2417 250.632 24.015 249.722 25.555C248.835 27.0717 247.61 28.2383 246.047 29.055C244.507 29.8717 242.78 30.28 240.867 30.28ZM240.867 25.1C242.01 25.1 242.978 24.68 243.772 23.84C244.588 23 244.997 21.7983 244.997 20.235C244.997 18.6717 244.6 17.47 243.807 16.63C243.037 15.79 242.08 15.37 240.937 15.37C239.77 15.37 238.802 15.79 238.032 16.63C237.262 17.4467 236.877 18.6483 236.877 20.235C236.877 21.7983 237.25 23 237.997 23.84C238.767 24.68 239.723 25.1 240.867 25.1Z" fill="black"/>
<path d="M262.207 30.28C260.503 30.28 258.987 29.9883 257.657 29.405C256.327 28.8217 255.277 28.0283 254.507 27.025C253.737 25.9983 253.305 24.855 253.212 23.595H259.127C259.197 24.2717 259.512 24.82 260.072 25.24C260.632 25.66 261.32 25.87 262.137 25.87C262.883 25.87 263.455 25.73 263.852 25.45C264.272 25.1467 264.482 24.7617 264.482 24.295C264.482 23.735 264.19 23.3267 263.607 23.07C263.023 22.79 262.078 22.4867 260.772 22.16C259.372 21.8333 258.205 21.495 257.272 21.145C256.338 20.7717 255.533 20.2 254.857 19.43C254.18 18.6367 253.842 17.575 253.842 16.245C253.842 15.125 254.145 14.11 254.752 13.2C255.382 12.2667 256.292 11.5317 257.482 10.995C258.695 10.4583 260.13 10.19 261.787 10.19C264.237 10.19 266.162 10.7967 267.562 12.01C268.985 13.2233 269.802 14.8333 270.012 16.84H264.482C264.388 16.1633 264.085 15.6267 263.572 15.23C263.082 14.8333 262.428 14.635 261.612 14.635C260.912 14.635 260.375 14.775 260.002 15.055C259.628 15.3117 259.442 15.6733 259.442 16.14C259.442 16.7 259.733 17.12 260.317 17.4C260.923 17.68 261.857 17.96 263.117 18.24C264.563 18.6133 265.742 18.9867 266.652 19.36C267.562 19.71 268.355 20.2933 269.032 21.11C269.732 21.9033 270.093 22.9767 270.117 24.33C270.117 25.4733 269.79 26.5 269.137 27.41C268.507 28.2967 267.585 28.9967 266.372 29.51C265.182 30.0233 263.793 30.28 262.207 30.28Z" fill="black"/>
</svg>
