<svg width="341" height="38" viewBox="0 0 341 38" fill="none" xmlns="http://www.w3.org/2000/svg">
<path d="M24.268 16.056C24.268 17.8453 23.8574 19.488 23.036 20.984C22.2147 22.4506 20.9534 23.6386 19.252 24.548C17.5507 25.4573 15.4387 25.912 12.916 25.912H8.25203V37H0.728027V6.11196H12.916C15.38 6.11196 17.4627 6.53729 19.164 7.38796C20.8654 8.23862 22.1414 9.41196 22.992 10.908C23.8427 12.404 24.268 14.12 24.268 16.056ZM12.344 19.928C13.7814 19.928 14.852 19.5906 15.556 18.916C16.26 18.2413 16.612 17.288 16.612 16.056C16.612 14.824 16.26 13.8706 15.556 13.196C14.852 12.5213 13.7814 12.184 12.344 12.184H8.25203V19.928H12.344Z" fill="white"/>
<path d="M51.3291 24.328C51.3291 25.032 51.2851 25.7653 51.1971 26.528H34.1691C34.2864 28.0533 34.7704 29.2266 35.6211 30.048C36.5011 30.84 37.5717 31.236 38.8331 31.236C40.7104 31.236 42.0157 30.444 42.7491 28.86H50.7571C50.3464 30.4733 49.5984 31.9253 48.5131 33.216C47.4571 34.5066 46.1224 35.5186 44.5091 36.252C42.8957 36.9853 41.0917 37.352 39.0971 37.352C36.6917 37.352 34.5504 36.8386 32.6731 35.812C30.7957 34.7853 29.3291 33.3186 28.2731 31.412C27.2171 29.5053 26.6891 27.276 26.6891 24.724C26.6891 22.172 27.2024 19.9426 28.2291 18.036C29.2851 16.1293 30.7517 14.6626 32.6291 13.636C34.5064 12.6093 36.6624 12.096 39.0971 12.096C41.4731 12.096 43.5851 12.5946 45.4331 13.592C47.2811 14.5893 48.7184 16.012 49.7451 17.86C50.8011 19.708 51.3291 21.864 51.3291 24.328ZM43.6291 22.348C43.6291 21.0573 43.1891 20.0306 42.3091 19.268C41.4291 18.5053 40.3291 18.124 39.0091 18.124C37.7477 18.124 36.6771 18.4906 35.7971 19.224C34.9464 19.9573 34.4184 20.9986 34.2131 22.348H43.6291ZM44.1571 6.15596L33.5531 10.6V5.40796L44.1571 0.303955V6.15596Z" fill="white"/>
<path d="M62.8223 16.54C63.7023 15.1906 64.8023 14.1346 66.1223 13.372C67.4423 12.58 68.909 12.184 70.5223 12.184V20.148H68.4543C66.577 20.148 65.169 20.5586 64.2303 21.38C63.2917 22.172 62.8223 23.58 62.8223 25.604V37H55.2983V12.448H62.8223V16.54Z" fill="white"/>
<path d="M77.9026 9.89596C76.5826 9.89596 75.4973 9.51462 74.6467 8.75196C73.8253 7.95996 73.4146 6.99196 73.4146 5.84796C73.4146 4.67462 73.8253 3.70662 74.6467 2.94396C75.4973 2.15195 76.5826 1.75595 77.9026 1.75595C79.1933 1.75595 80.2493 2.15195 81.0707 2.94396C81.9213 3.70662 82.3466 4.67462 82.3466 5.84796C82.3466 6.99196 81.9213 7.95996 81.0707 8.75196C80.2493 9.51462 79.1933 9.89596 77.9026 9.89596ZM81.6427 12.448V37H74.1187V12.448H81.6427Z" fill="white"/>
<path d="M85.5992 24.724C85.5992 22.172 86.1125 19.9426 87.1392 18.036C88.1952 16.1293 89.6472 14.6626 91.4952 13.636C93.3726 12.6093 95.5139 12.096 97.9192 12.096C100.999 12.096 103.566 12.9026 105.619 14.516C107.702 16.1293 109.066 18.4026 109.711 21.336H101.703C101.029 19.4586 99.7232 18.52 97.7872 18.52C96.4085 18.52 95.3085 19.0626 94.4872 20.148C93.6659 21.204 93.2552 22.7293 93.2552 24.724C93.2552 26.7186 93.6659 28.2586 94.4872 29.344C95.3085 30.4 96.4085 30.928 97.7872 30.928C99.7232 30.928 101.029 29.9893 101.703 28.112H109.711C109.066 30.9866 107.702 33.2453 105.619 34.888C103.537 36.5306 100.97 37.352 97.9192 37.352C95.5139 37.352 93.3726 36.8386 91.4952 35.812C89.6472 34.7853 88.1952 33.3186 87.1392 31.412C86.1125 29.5053 85.5992 27.276 85.5992 24.724Z" fill="white"/>
<path d="M121.26 4.43996V37H113.736V4.43996H121.26Z" fill="white"/>
<path d="M149.856 24.328C149.856 25.032 149.812 25.7653 149.724 26.528H132.696C132.814 28.0533 133.298 29.2266 134.148 30.048C135.028 30.84 136.099 31.236 137.36 31.236C139.238 31.236 140.543 30.444 141.276 28.86H149.284C148.874 30.4733 148.126 31.9253 147.04 33.216C145.984 34.5066 144.65 35.5186 143.036 36.252C141.423 36.9853 139.619 37.352 137.624 37.352C135.219 37.352 133.078 36.8386 131.2 35.812C129.323 34.7853 127.856 33.3186 126.8 31.412C125.744 29.5053 125.216 27.276 125.216 24.724C125.216 22.172 125.73 19.9426 126.756 18.036C127.812 16.1293 129.279 14.6626 131.156 13.636C133.034 12.6093 135.19 12.096 137.624 12.096C140 12.096 142.112 12.5946 143.96 13.592C145.808 14.5893 147.246 16.012 148.272 17.86C149.328 19.708 149.856 21.864 149.856 24.328ZM142.156 22.348C142.156 21.0573 141.716 20.0306 140.836 19.268C139.956 18.5053 138.856 18.124 137.536 18.124C136.275 18.124 135.204 18.4906 134.324 19.224C133.474 19.9573 132.946 20.9986 132.74 22.348H142.156Z" fill="white"/>
<path d="M163.814 37.352C161.672 37.352 159.766 36.9853 158.094 36.252C156.422 35.5186 155.102 34.5213 154.134 33.26C153.166 31.9693 152.623 30.532 152.506 28.948H159.942C160.03 29.7986 160.426 30.488 161.13 31.016C161.834 31.544 162.699 31.808 163.726 31.808C164.664 31.808 165.383 31.632 165.882 31.28C166.41 30.8986 166.674 30.4146 166.674 29.828C166.674 29.124 166.307 28.6106 165.574 28.288C164.84 27.936 163.652 27.5546 162.01 27.144C160.25 26.7333 158.783 26.308 157.61 25.868C156.436 25.3986 155.424 24.68 154.574 23.712C153.723 22.7146 153.298 21.38 153.298 19.708C153.298 18.3 153.679 17.024 154.442 15.88C155.234 14.7066 156.378 13.7826 157.874 13.108C159.399 12.4333 161.203 12.096 163.286 12.096C166.366 12.096 168.786 12.8586 170.546 14.384C172.335 15.9093 173.362 17.9333 173.626 20.456H166.674C166.556 19.6053 166.175 18.9306 165.53 18.432C164.914 17.9333 164.092 17.684 163.066 17.684C162.186 17.684 161.511 17.86 161.042 18.212C160.572 18.5346 160.338 18.9893 160.338 19.576C160.338 20.28 160.704 20.808 161.438 21.16C162.2 21.512 163.374 21.864 164.958 22.216C166.776 22.6853 168.258 23.1546 169.402 23.624C170.546 24.064 171.543 24.7973 172.394 25.824C173.274 26.8213 173.728 28.1706 173.758 29.872C173.758 31.3093 173.347 32.6 172.526 33.744C171.734 34.8586 170.575 35.7386 169.05 36.384C167.554 37.0293 165.808 37.352 163.814 37.352Z" fill="white"/>
<path d="M198.861 37.308C196.602 37.308 194.578 36.9413 192.789 36.208C191 35.4746 189.562 34.3893 188.477 32.952C187.421 31.5146 186.864 29.784 186.805 27.76H194.813C194.93 28.904 195.326 29.784 196.001 30.4C196.676 30.9866 197.556 31.28 198.641 31.28C199.756 31.28 200.636 31.0306 201.281 30.532C201.926 30.004 202.249 29.2853 202.249 28.376C202.249 27.6133 201.985 26.9826 201.457 26.484C200.958 25.9853 200.328 25.5746 199.565 25.252C198.832 24.9293 197.776 24.5626 196.397 24.152C194.402 23.536 192.774 22.92 191.513 22.304C190.252 21.688 189.166 20.7786 188.257 19.576C187.348 18.3733 186.893 16.804 186.893 14.868C186.893 11.9933 187.934 9.74929 190.017 8.13596C192.1 6.49329 194.813 5.67196 198.157 5.67196C201.56 5.67196 204.302 6.49329 206.385 8.13596C208.468 9.74929 209.582 12.008 209.729 14.912H201.589C201.53 13.9146 201.164 13.1373 200.489 12.58C199.814 11.9933 198.949 11.7 197.893 11.7C196.984 11.7 196.25 11.9493 195.693 12.448C195.136 12.9173 194.857 13.6066 194.857 14.516C194.857 15.5133 195.326 16.2906 196.265 16.848C197.204 17.4053 198.67 18.0066 200.665 18.652C202.66 19.3266 204.273 19.972 205.505 20.588C206.766 21.204 207.852 22.0986 208.761 23.272C209.67 24.4453 210.125 25.956 210.125 27.804C210.125 29.564 209.67 31.1626 208.761 32.6C207.881 34.0373 206.59 35.1813 204.889 36.032C203.188 36.8826 201.178 37.308 198.861 37.308Z" fill="white"/>
<path d="M213.259 24.68C213.259 22.1573 213.729 19.9426 214.667 18.036C215.635 16.1293 216.941 14.6626 218.583 13.636C220.226 12.6093 222.059 12.096 224.083 12.096C225.814 12.096 227.325 12.448 228.615 13.152C229.935 13.856 230.947 14.78 231.651 15.924V12.448H239.175V37H231.651V33.524C230.918 34.668 229.891 35.592 228.571 36.296C227.281 37 225.77 37.352 224.039 37.352C222.045 37.352 220.226 36.8386 218.583 35.812C216.941 34.756 215.635 33.2746 214.667 31.368C213.729 29.432 213.259 27.2026 213.259 24.68ZM231.651 24.724C231.651 22.8466 231.123 21.3653 230.067 20.28C229.041 19.1946 227.779 18.652 226.283 18.652C224.787 18.652 223.511 19.1946 222.455 20.28C221.429 21.336 220.915 22.8026 220.915 24.68C220.915 26.5573 221.429 28.0533 222.455 29.168C223.511 30.2533 224.787 30.796 226.283 30.796C227.779 30.796 229.041 30.2533 230.067 29.168C231.123 28.0826 231.651 26.6013 231.651 24.724Z" fill="white"/>
<path d="M259.579 12.184C262.453 12.184 264.741 13.1226 266.443 15C268.173 16.848 269.039 19.4 269.039 22.656V37H261.559V23.668C261.559 22.0253 261.133 20.7493 260.283 19.84C259.432 18.9306 258.288 18.476 256.851 18.476C255.413 18.476 254.269 18.9306 253.419 19.84C252.568 20.7493 252.143 22.0253 252.143 23.668V37H244.619V12.448H252.143V15.704C252.905 14.6186 253.932 13.768 255.223 13.152C256.513 12.5066 257.965 12.184 259.579 12.184Z" fill="white"/>
<path d="M287.951 30.62V37H284.123C281.395 37 279.268 36.34 277.743 35.02C276.218 33.6706 275.455 31.4853 275.455 28.464V18.696H272.463V12.448H275.455V6.46396H282.979V12.448H287.907V18.696H282.979V28.552C282.979 29.2853 283.155 29.8133 283.507 30.136C283.859 30.4586 284.446 30.62 285.267 30.62H287.951Z" fill="white"/>
<path d="M303.318 37.352C300.913 37.352 298.742 36.8386 296.806 35.812C294.899 34.7853 293.389 33.3186 292.274 31.412C291.189 29.5053 290.646 27.276 290.646 24.724C290.646 22.2013 291.203 19.9866 292.318 18.08C293.433 16.144 294.958 14.6626 296.894 13.636C298.83 12.6093 301.001 12.096 303.406 12.096C305.811 12.096 307.982 12.6093 309.918 13.636C311.854 14.6626 313.379 16.144 314.494 18.08C315.609 19.9866 316.166 22.2013 316.166 24.724C316.166 27.2466 315.594 29.476 314.45 31.412C313.335 33.3186 311.795 34.7853 309.83 35.812C307.894 36.8386 305.723 37.352 303.318 37.352ZM303.318 30.84C304.755 30.84 305.973 30.312 306.97 29.256C307.997 28.2 308.51 26.6893 308.51 24.724C308.51 22.7586 308.011 21.248 307.014 20.192C306.046 19.136 304.843 18.608 303.406 18.608C301.939 18.608 300.722 19.136 299.754 20.192C298.786 21.2186 298.302 22.7293 298.302 24.724C298.302 26.6893 298.771 28.2 299.71 29.256C300.678 30.312 301.881 30.84 303.318 30.84Z" fill="white"/>
<path d="M330.146 37.352C328.004 37.352 326.098 36.9853 324.426 36.252C322.754 35.5186 321.434 34.5213 320.466 33.26C319.498 31.9693 318.955 30.532 318.838 28.948H326.274C326.362 29.7986 326.758 30.488 327.462 31.016C328.166 31.544 329.031 31.808 330.058 31.808C330.996 31.808 331.715 31.632 332.214 31.28C332.742 30.8986 333.006 30.4146 333.006 29.828C333.006 29.124 332.639 28.6106 331.906 28.288C331.172 27.936 329.984 27.5546 328.342 27.144C326.582 26.7333 325.115 26.308 323.942 25.868C322.768 25.3986 321.756 24.68 320.906 23.712C320.055 22.7146 319.63 21.38 319.63 19.708C319.63 18.3 320.011 17.024 320.774 15.88C321.566 14.7066 322.71 13.7826 324.206 13.108C325.731 12.4333 327.535 12.096 329.618 12.096C332.698 12.096 335.118 12.8586 336.878 14.384C338.667 15.9093 339.694 17.9333 339.958 20.456H333.006C332.888 19.6053 332.507 18.9306 331.862 18.432C331.246 17.9333 330.424 17.684 329.398 17.684C328.518 17.684 327.843 17.86 327.374 18.212C326.904 18.5346 326.67 18.9893 326.67 19.576C326.67 20.28 327.036 20.808 327.77 21.16C328.532 21.512 329.706 21.864 331.29 22.216C333.108 22.6853 334.59 23.1546 335.734 23.624C336.878 24.064 337.875 24.7973 338.726 25.824C339.606 26.8213 340.06 28.1706 340.09 29.872C340.09 31.3093 339.679 32.6 338.858 33.744C338.066 34.8586 336.907 35.7386 335.382 36.384C333.886 37.0293 332.14 37.352 330.146 37.352Z" fill="white"/>
</svg>
