<svg width="104" height="104" viewBox="0 0 104 104" fill="none" xmlns="http://www.w3.org/2000/svg">
<path d="M71.5722 8.98815C69.9655 8.93413 68.2837 9.21425 66.5975 9.76093C63.2251 10.8543 59.6911 12.985 56.0644 15.9351C54.6431 17.0912 53.2089 18.4128 51.7699 19.815C50.3626 18.4484 48.9579 17.1583 47.5679 16.0276C43.9442 13.0799 40.4198 10.9524 37.055 9.86155C33.6902 8.77067 30.3422 8.73687 27.5926 10.3244C24.8429 11.9119 23.1985 14.8262 22.4609 18.2856C21.7232 21.745 21.8004 25.8647 22.5414 30.4769C22.7987 32.0789 23.1698 33.7596 23.5878 35.4717C22.0166 35.9479 20.4908 36.4486 19.0759 37.0012C14.8059 38.669 11.2727 40.6642 8.69985 43.0385C6.12698 45.4127 4.4657 48.2943 4.4657 51.4585C4.4657 54.6226 6.12698 57.5002 8.69985 59.8745C11.2727 62.2487 14.8059 64.248 19.0759 65.9158C20.5889 66.5067 22.2269 67.0388 23.9179 67.5418C23.3096 69.8145 22.8168 72.0199 22.481 74.1104C21.7395 78.7263 21.6611 82.8465 22.4005 86.3138C23.1398 89.7811 24.785 92.7118 27.5483 94.3072C30.3116 95.9025 33.6745 95.8634 37.047 94.77C40.4194 93.6767 43.9493 91.55 47.576 88.5999C48.9842 87.4544 50.4087 86.1477 51.8343 84.7602C53.2667 86.1553 54.6982 87.4694 56.1127 88.62C59.7365 91.5678 63.2649 93.6952 66.6297 94.7861C69.9945 95.877 73.3384 95.9108 76.0881 94.3233C78.8378 92.7357 80.4821 89.8215 81.2198 86.3621C81.9575 82.9027 81.8762 78.7829 81.1353 74.1708C80.7985 72.0746 80.3054 69.8659 79.6944 67.5861C81.4412 67.0708 83.131 66.5244 84.6892 65.9158C88.9593 64.248 92.4925 62.2487 95.0653 59.8745C97.6382 57.5002 99.2995 54.6226 99.2995 51.4585C99.2995 48.2943 97.6382 45.4128 95.0653 43.0385C92.4925 40.6642 88.9593 38.669 84.6892 37.0012C83.254 36.4406 81.7048 35.9335 80.1089 35.4516C80.5304 33.7289 80.9045 32.0362 81.1635 30.4246C81.905 25.8087 81.9833 21.6844 81.244 18.2172C80.5046 14.7499 78.8554 11.8232 76.0921 10.2278C74.7105 9.43012 73.1789 9.04218 71.5722 8.98815ZM71.383 13.1821C72.3913 13.2096 73.2514 13.4496 73.9871 13.8743C75.4586 14.7239 76.5463 16.3773 77.1265 19.0986C77.7068 21.8199 77.6867 25.4966 77.0017 29.7605C76.7672 31.2203 76.4267 32.7676 76.0398 34.3528C71.8257 33.3387 67.2082 32.5857 62.2869 32.1432C59.8145 28.7178 57.2734 25.6017 54.7121 22.8337C56.0662 21.5118 57.4117 20.2755 58.7249 19.2073C62.075 16.4821 65.2467 14.6278 67.8935 13.7697C69.2169 13.3406 70.3748 13.1545 71.383 13.1821ZM32.2775 13.1941C33.2916 13.1658 34.4519 13.3515 35.7791 13.7818C38.4336 14.6423 41.6108 16.4958 44.9639 19.2234C46.2504 20.2699 47.5663 21.4793 48.8921 22.7693C46.3123 25.5593 43.7534 28.7079 41.265 32.1633C36.3612 32.614 31.7601 33.3741 27.5644 34.3931C27.18 32.8154 26.844 31.2744 26.6105 29.8208C25.9249 25.5532 25.9078 21.872 26.4897 19.1429C27.0717 16.4138 28.1682 14.7519 29.6533 13.8945C30.3958 13.4658 31.2634 13.2224 32.2775 13.1941ZM51.8343 25.8C53.5128 27.6266 55.1923 29.6262 56.8573 31.7769C55.221 31.7087 53.5647 31.6682 51.8826 31.6682C50.1669 31.6682 48.4791 31.71 46.8113 31.7809C48.4769 29.6283 50.1552 27.6282 51.8343 25.8ZM51.8826 35.83C54.685 35.83 57.4164 35.9451 60.0732 36.1399C61.9013 38.7656 63.6878 41.5511 65.39 44.4995C66.8857 47.0901 68.2393 49.6768 69.4712 52.2313C68.2263 54.8196 66.85 57.4412 65.3337 60.0677C63.9989 62.3796 62.605 64.5754 61.1881 66.6926C58.187 66.9434 55.0773 67.083 51.8826 67.083C48.6109 67.083 45.4314 66.9351 42.3638 66.6725C40.9705 64.5858 39.6001 62.4192 38.2866 60.1441C36.7737 57.5237 35.4041 54.9109 34.1611 52.3279C35.4093 49.7302 36.7851 47.0989 38.3067 44.4633C40.0001 41.5304 41.7813 38.7609 43.5994 36.1479C46.2848 35.9488 49.048 35.83 51.8826 35.83ZM65.382 36.655C68.7775 37.0789 71.9657 37.6677 74.933 38.3737C74.0522 41.261 72.9673 44.277 71.6527 47.3894C70.7992 45.744 69.9152 44.0931 68.9601 42.4388C67.8032 40.435 66.6004 38.5217 65.382 36.655ZM38.1659 36.6872C36.9725 38.5199 35.7983 40.3941 34.6642 42.3583C33.6968 44.0338 32.7945 45.707 31.9314 47.3733C30.6281 44.2796 29.5498 41.2808 28.6752 38.4099C31.6215 37.7023 34.7925 37.1159 38.1659 36.6872ZM79.0102 39.4684C80.471 39.9104 81.8818 40.3717 83.1759 40.8771C87.1122 42.4146 90.2259 44.2351 92.2439 46.0974C94.2619 47.9596 95.1378 49.7356 95.1378 51.4585C95.1378 53.1814 94.2619 54.9573 92.2439 56.8196C90.2259 58.6819 87.1122 60.5024 83.1759 62.0398C81.7378 62.6015 80.1578 63.1109 78.5151 63.5934C77.3433 59.9691 75.8476 56.1879 74.0676 52.3279C76.1143 47.8962 77.7676 43.5752 79.0102 39.4684ZM24.6866 39.4886C25.9149 43.5542 27.5471 47.8325 29.5647 52.2192C27.773 56.1017 26.27 59.9044 25.0931 63.5492C23.5083 63.0793 21.9818 62.5837 20.5893 62.0398C16.653 60.5024 13.5393 58.6819 11.5213 56.8196C9.50323 54.9573 8.6274 53.1814 8.6274 51.4585C8.6274 49.7356 9.50323 47.9596 11.5213 46.0974C13.5393 44.2351 16.653 42.4146 20.5893 40.8771C21.8635 40.3795 23.2506 39.9248 24.6866 39.4886ZM51.8826 41.992C46.2165 41.992 41.5789 46.6295 41.5789 52.2957C41.5789 57.9618 46.2165 62.5993 51.8826 62.5993C57.5487 62.5993 62.1862 57.9618 62.1862 52.2957C62.1862 46.6295 57.5487 41.992 51.8826 41.992ZM51.8826 46.1135C55.3213 46.1135 58.0648 48.8569 58.0648 52.2957C58.0648 55.7344 55.3213 58.4778 51.8826 58.4778C48.4439 58.4778 45.7004 55.7344 45.7004 52.2957C45.7004 48.8569 48.4439 46.1135 51.8826 46.1135ZM71.705 57.1657C72.7858 59.7235 73.7252 62.2264 74.5144 64.6399C72.0361 65.2146 69.3973 65.6987 66.6216 66.0808C67.4206 64.8059 68.2097 63.5072 68.9802 62.1727C69.946 60.4998 70.843 58.8292 71.705 57.1657ZM31.9797 57.1698C32.8462 58.8435 33.7487 60.5216 34.7206 62.2049C35.4814 63.5226 36.2583 64.8092 37.047 66.0687C34.2795 65.685 31.6488 65.1991 29.1783 64.6238C29.964 62.2177 30.9038 59.72 31.9797 57.1698ZM27.991 68.6245C31.7206 69.508 35.763 70.1867 40.0495 70.6289C42.9115 74.7684 45.8914 78.4861 48.8921 81.7375C47.5506 83.0456 46.2209 84.2732 44.9196 85.3317C41.5694 88.0569 38.3937 89.9072 35.7469 90.7653C33.1001 91.6234 31.1248 91.5102 29.6533 90.6606C28.1818 89.8111 27.0982 88.1576 26.5179 85.4364C25.9377 82.7151 25.9537 79.0424 26.6387 74.7785C26.9494 72.8442 27.4138 70.7729 27.991 68.6245ZM75.7057 68.6406C76.2874 70.801 76.7537 72.882 77.0661 74.8268C77.7517 79.0944 77.7688 82.7717 77.1869 85.5008C76.605 88.2299 75.5124 89.8958 74.0274 90.7532C72.5423 91.6106 70.552 91.7265 67.8975 90.8659C65.2431 90.0053 62.0658 88.1478 58.7128 85.4203C57.4021 84.3541 56.0632 83.1206 54.7121 81.8019C57.7323 78.5382 60.7344 74.8004 63.6151 70.637C67.9124 70.1977 71.966 69.5231 75.7057 68.6406ZM45.4267 71.0515C47.5426 71.1668 49.6864 71.2447 51.8826 71.2447C54.0062 71.2447 56.0804 71.1715 58.1292 71.0636C56.0349 73.8892 53.9001 76.458 51.7739 78.7712C49.649 76.4531 47.5183 73.8797 45.4267 71.0515Z" fill="#4CD78C"/>
</svg>
