<svg width="63" height="47" viewBox="0 0 63 47" fill="none" xmlns="http://www.w3.org/2000/svg">
<path d="M60.3337 7.92C59.76 4.75312 57.0262 2.44688 53.8537 1.72688C49.1062 0.72 40.32 0 30.8137 0C21.3131 0 12.3863 0.72 7.63312 1.72688C4.46625 2.44688 1.72688 4.60688 1.15312 7.92C0.573751 11.52 0 16.56 0 23.04C0 29.52 0.573751 34.56 1.29375 38.16C1.87312 41.3269 4.60688 43.6331 7.77375 44.3531C12.8138 45.36 21.4538 46.08 30.96 46.08C40.4662 46.08 49.1062 45.36 54.1462 44.3531C57.3131 43.6331 60.0469 41.4731 60.6262 38.16C61.2 34.56 61.92 29.3738 62.0662 23.04C61.7737 16.56 61.0537 11.52 60.3337 7.92ZM23.04 33.12V12.96L40.6069 23.04L23.04 33.12Z" fill="#DBDBDB"/>
</svg>
